# xmcd
#
# Track frame offsets:
#	150
#	15884
#	33072
#	60478
#	75417
#	91702
#	104525
#	121968
#	137317
#	156066
#
# Disc length: 2291 seconds
#
# Revision: 0
# Processed by: cddbd v1.5.1PL2 Copyright (c) Steve Scherf et al.
# Submitted via: dBpowerAMP V4.0
#
DISCID=5e08f10a
DTITLE=Little Milton - Think Of Me
DYEAR=1900
DGENRE=Blues
TTITLE0=01 - Gonna Find Me Somebody To Love
TTITLE1=02 - Let Your Love Rain Down On Me
TTITLE2=03 - The Blues Is My Companion
TTITLE3=04 - Something Wonderful
TTITLE4=05 - Gone With The Wind
TTITLE5=07 - Next To You
TTITLE6=08 - Think Of Me  (Thinking Of You)
TTITLE7=09 - Reconsider Me
TTITLE8=10 - Second Hand Love
TTITLE9=11 - Feel Like A Man
EXTD=
EXTT0=
EXTT1=
EXTT2=
EXTT3=
EXTT4=
EXTT5=
EXTT6=
EXTT7=
EXTT8=
EXTT9=
PLAYORDER=
